<svg xmlns="http://www.w3.org/2000/svg" xmlns:xlink="http://www.w3.org/1999/xlink" xmlns:lucid="lucid" width="399" height="455"><g transform="translate(1588 -192)" lucid:page-tab-id="0_0"><path d="M-2000 0h1000v1000h-1000z" fill="#fff"/><path d="M-1580 201a1 1 0 0 1 1-1h382.4a1 1 0 0 1 1 1v356.8a1 1 0 0 1-1 1H-1579a1 1 0 0 1-1-1z" stroke="#5e5e5e" stroke-width="2" fill="#fff"/><path d="M-1560 221a1 1 0 0 1 1-1h338a1 1 0 0 1 1 1v58a1 1 0 0 1-1 1h-338a1 1 0 0 1-1-1z" stroke="#000" stroke-width="2" fill="#f2f3f5"/><path d="M-1480 441a1 1 0 0 1 1-1h178a1 1 0 0 1 1 1v96.8a1 1 0 0 1-1 1h-178a1 1 0 0 1-1-1z" stroke="#5e5e5e" stroke-width="2" fill="#f2f3f5"/><use xlink:href="#a" transform="matrix(1,0,0,1,-1475,445) translate(46.15432098765433 48.60069444444444)"/><use xlink:href="#b" transform="matrix(1,0,0,1,-1475,445) translate(90.18518518518519 48.60069444444444)"/><path d="M-1239.2 250c0 5.74-4.67 10.4-10.4 10.4-5.75 0-10.4-4.66-10.4-10.4s4.65-10.4 10.4-10.4c5.73 0 10.4 4.66 10.4 10.4z" stroke="#000" fill="#cfe4ff"/><use xlink:href="#c" transform="matrix(1,0,0,1,-1255,244.60629921259843) translate(1.796296296296298 10.666666666666664)"/><path d="M-1279.2 250c0 5.74-4.67 10.4-10.4 10.4-5.75 0-10.4-4.66-10.4-10.4s4.65-10.4 10.4-10.4c5.73 0 10.4 4.66 10.4 10.4z" stroke="#000" fill="#cfe4ff"/><use xlink:href="#d" transform="matrix(1,0,0,1,-1295,244.60629921259843) translate(1.796296296296298 10.666666666666664)"/><path d="M-1319.2 250c0 5.74-4.67 10.4-10.4 10.4-5.75 0-10.4-4.66-10.4-10.4s4.65-10.4 10.4-10.4c5.73 0 10.4 4.66 10.4 10.4z" stroke="#000" fill="#cfe4ff"/><use xlink:href="#e" transform="matrix(1,0,0,1,-1335,244.60629921259846) translate(1.796296296296298 10.666666666666664)"/><path d="M-1359.2 250c0 5.74-4.67 10.4-10.4 10.4-5.75 0-10.4-4.66-10.4-10.4s4.65-10.4 10.4-10.4c5.73 0 10.4 4.66 10.4 10.4z" stroke="#000" fill="#cfe4ff"/><use xlink:href="#f" transform="matrix(1,0,0,1,-1375,244.60629921259843) translate(1.796296296296298 10.666666666666664)"/><path d="M-1399.2 250c0 5.74-4.67 10.4-10.4 10.4-5.75 0-10.4-4.66-10.4-10.4s4.65-10.4 10.4-10.4c5.73 0 10.4 4.66 10.4 10.4z" stroke="#000" fill="#cfe4ff"/><use xlink:href="#g" transform="matrix(1,0,0,1,-1415,244.60629921259843) translate(1.796296296296298 10.666666666666664)"/><path d="M-1439.2 250c0 5.74-4.67 10.4-10.4 10.4-5.75 0-10.4-4.66-10.4-10.4s4.65-10.4 10.4-10.4c5.73 0 10.4 4.66 10.4 10.4z" stroke="#000" fill="#cfe4ff"/><use xlink:href="#h" transform="matrix(1,0,0,1,-1455,244.60629921259846) translate(1.796296296296298 10.666666666666664)"/><path d="M-1479.2 250c0 5.74-4.67 10.4-10.4 10.4-5.75 0-10.4-4.66-10.4-10.4s4.65-10.4 10.4-10.4c5.73 0 10.4 4.66 10.4 10.4z" stroke="#000" fill="#cfe4ff"/><use xlink:href="#i" transform="matrix(1,0,0,1,-1495,244.60629921259846) translate(1.796296296296298 10.666666666666664)"/><path d="M-1519.2 250c0 5.74-4.67 10.4-10.4 10.4-5.75 0-10.4-4.66-10.4-10.4s4.65-10.4 10.4-10.4c5.73 0 10.4 4.66 10.4 10.4z" stroke="#000" fill="#cfe4ff"/><use xlink:href="#j" transform="matrix(1,0,0,1,-1535,244.60629921259843) translate(1.796296296296298 10.666666666666664)"/><path d="M-1479.2 330.4c0 5.73-4.67 10.4-10.4 10.4-5.75 0-10.4-4.67-10.4-10.4 0-5.75 4.65-10.4 10.4-10.4 5.73 0 10.4 4.65 10.4 10.4zM-1389.2 330.4c0 5.73-4.67 10.4-10.4 10.4-5.75 0-10.4-4.67-10.4-10.4 0-5.75 4.65-10.4 10.4-10.4 5.73 0 10.4 4.65 10.4 10.4zM-1299.2 330.4c0 5.73-4.67 10.4-10.4 10.4-5.75 0-10.4-4.67-10.4-10.4 0-5.75 4.65-10.4 10.4-10.4 5.73 0 10.4 4.65 10.4 10.4z" stroke="#5e5e5e" fill="#e3fae3"/><path d="M-1194.6 386.4" stroke="#5e5e5e" fill="none"/><path stroke="#5e5e5e" stroke-width=".05" fill="#5e5e5e"/><path stroke="#5e5e5e" stroke-width=".05" fill="#5e5e5e"/><path d="M-1559.2 590.4c0 5.73-4.67 10.4-10.4 10.4-5.75 0-10.4-4.67-10.4-10.4 0-5.75 4.65-10.4 10.4-10.4 5.73 0 10.4 4.65 10.4 10.4z" stroke="#000" fill="#cfe4ff"/><path d="M-1553.23 586.62a6 6 0 0 1 6-6h228a6 6 0 0 1 6 6v8.8a6 6 0 0 1-6 6h-228a6 6 0 0 1-6-6z" stroke="#000" stroke-opacity="0" stroke-width="3" fill="#fff" fill-opacity="0"/><use xlink:href="#k" transform="matrix(1,0,0,1,-1548.2283464566929,585.6188976377955) translate(0 12.444444444444443)"/><use xlink:href="#l" transform="matrix(1,0,0,1,-1548.2283464566929,585.6188976377955) translate(33.61728395061727 12.444444444444443)"/><use xlink:href="#m" transform="matrix(1,0,0,1,-1548.2283464566929,585.6188976377955) translate(99.20987654320984 12.444444444444443)"/><use xlink:href="#n" transform="matrix(1,0,0,1,-1548.2283464566929,585.6188976377955) translate(120.81481481481478 12.444444444444443)"/><use xlink:href="#b" transform="matrix(1,0,0,1,-1548.2283464566929,585.6188976377955) translate(176.037037037037 12.444444444444443)"/><path d="M-1559.2 620.8c0 5.74-4.67 10.4-10.4 10.4-5.75 0-10.4-4.66-10.4-10.4s4.65-10.4 10.4-10.4c5.73 0 10.4 4.66 10.4 10.4z" stroke="#5e5e5e" fill="#e3fae3"/><path d="M-1553.23 616.4a6 6 0 0 1 6-6h262.02a6 6 0 0 1 6 6v8.8a6 6 0 0 1-6 6h-262.03a6 6 0 0 1-6-6z" stroke="#000" stroke-opacity="0" stroke-width="3" fill="#fff" fill-opacity="0"/><g><use xlink:href="#o" transform="matrix(1,0,0,1,-1548.2283464566929,615.4062992125987) translate(0 12.444444444444443)"/><use xlink:href="#n" transform="matrix(1,0,0,1,-1548.2283464566929,615.4062992125987) translate(61.2716049382716 12.444444444444443)"/><use xlink:href="#l" transform="matrix(1,0,0,1,-1548.2283464566929,615.4062992125987) translate(116.49382716049382 12.444444444444443)"/><use xlink:href="#p" transform="matrix(1,0,0,1,-1548.2283464566929,615.4062992125987) translate(182.0864197530864 12.444444444444443)"/><use xlink:href="#q" transform="matrix(1,0,0,1,-1548.2283464566929,615.4062992125987) translate(204.51234567901233 12.444444444444443)"/></g><defs><path fill="#333" d="M59-47c-2 24 18 29 38 22v24C64 9 27 4 27-40v-127H5v-23h24l9-43h21v43h35v23H59v120" id="r"/><path fill="#333" d="M141-36C126-15 110 5 73 4 37 3 15-17 15-53c-1-64 63-63 125-63 3-35-9-54-41-54-24 1-41 7-42 31l-33-3c5-37 33-52 76-52 45 0 72 20 72 64v82c-1 20 7 32 28 27v20c-31 9-61-2-59-35zM48-53c0 20 12 33 32 33 41-3 63-29 60-74-43 2-92-5-92 41" id="s"/><path fill="#333" d="M114-163C36-179 61-72 57 0H25l-1-190h30c1 12-1 29 2 39 6-27 23-49 58-41v29" id="t"/><path fill="#333" d="M177-190C167-65 218 103 67 71c-23-6-38-20-44-43l32-5c15 47 100 32 89-28v-30C133-14 115 1 83 1 29 1 15-40 15-95c0-56 16-97 71-98 29-1 48 16 59 35 1-10 0-23 2-32h30zM94-22c36 0 50-32 50-73 0-42-14-75-50-75-39 0-46 34-46 75s6 73 46 73" id="u"/><path fill="#333" d="M100-194c63 0 86 42 84 106H49c0 40 14 67 53 68 26 1 43-12 49-29l28 8c-11 28-37 45-77 45C44 4 14-33 15-96c1-61 26-98 85-98zm52 81c6-60-76-77-97-28-3 7-6 17-6 28h103" id="v"/><g id="a"><use transform="matrix(0.04320987654320987,0,0,0.04320987654320987,0,0)" xlink:href="#r"/><use transform="matrix(0.04320987654320987,0,0,0.04320987654320987,4.320987654320986,0)" xlink:href="#s"/><use transform="matrix(0.04320987654320987,0,0,0.04320987654320987,12.962962962962958,0)" xlink:href="#t"/><use transform="matrix(0.04320987654320987,0,0,0.04320987654320987,18.104938271604933,0)" xlink:href="#u"/><use transform="matrix(0.04320987654320987,0,0,0.04320987654320987,26.746913580246904,0)" xlink:href="#v"/><use transform="matrix(0.04320987654320987,0,0,0.04320987654320987,35.38888888888888,0)" xlink:href="#r"/></g><path fill="#333" d="M115-194c53 0 69 39 70 98 0 66-23 100-70 100C84 3 66-7 56-30L54 0H23l1-261h32v101c10-23 28-34 59-34zm-8 174c40 0 45-34 45-75 0-40-5-75-45-74-42 0-51 32-51 76 0 43 10 73 51 73" id="w"/><path fill="#333" d="M24 0v-261h32V0H24" id="x"/><g id="b"><use transform="matrix(0.04320987654320987,0,0,0.04320987654320987,0,0)" xlink:href="#r"/><use transform="matrix(0.04320987654320987,0,0,0.04320987654320987,4.320987654320986,0)" xlink:href="#s"/><use transform="matrix(0.04320987654320987,0,0,0.04320987654320987,12.962962962962958,0)" xlink:href="#w"/><use transform="matrix(0.04320987654320987,0,0,0.04320987654320987,21.60493827160493,0)" xlink:href="#x"/><use transform="matrix(0.04320987654320987,0,0,0.04320987654320987,25.01851851851851,0)" xlink:href="#v"/></g><path fill="#333" d="M27 0v-27h64v-190l-56 39v-29l58-41h29v221h61V0H27" id="y"/><use transform="matrix(0.03703703703703702,0,0,0.03703703703703702,0,0)" xlink:href="#y" id="c"/><path fill="#333" d="M101-251c82-7 93 87 43 132L82-64C71-53 59-42 53-27h129V0H18c2-99 128-94 128-182 0-28-16-43-45-43s-46 15-49 41l-32-3c6-41 34-60 81-64" id="z"/><use transform="matrix(0.03703703703703702,0,0,0.03703703703703702,0,0)" xlink:href="#z" id="d"/><path fill="#333" d="M126-127c33 6 58 20 58 59 0 88-139 92-164 29-3-8-5-16-6-25l32-3c6 27 21 44 54 44 32 0 52-15 52-46 0-38-36-46-79-43v-28c39 1 72-4 72-42 0-27-17-43-46-43-28 0-47 15-49 41l-32-3c6-42 35-63 81-64 48-1 79 21 79 65 0 36-21 52-52 59" id="A"/><use transform="matrix(0.03703703703703702,0,0,0.03703703703703702,0,0)" xlink:href="#A" id="e"/><path fill="#333" d="M155-56V0h-30v-56H8v-25l114-167h33v167h35v25h-35zm-30-156c-27 46-58 90-88 131h88v-131" id="B"/><use transform="matrix(0.03703703703703702,0,0,0.03703703703703702,0,0)" xlink:href="#B" id="f"/><path fill="#333" d="M54-142c48-35 137-8 131 61C196 18 31 33 14-55l32-4c7 23 22 37 52 37 35-1 51-22 54-58 4-55-73-65-99-34H22l8-134h141v27H59" id="C"/><use transform="matrix(0.03703703703703702,0,0,0.03703703703703702,0,0)" xlink:href="#C" id="g"/><path fill="#333" d="M110-160c48 1 74 30 74 79 0 53-28 85-80 85-65 0-83-55-86-122-5-90 50-162 133-122 14 7 22 21 27 39l-31 6c-5-40-67-38-82-6-9 19-15 44-15 74 11-20 30-34 60-33zm-7 138c34 0 49-23 49-58s-16-56-50-56c-29 0-50 16-49 49 1 36 15 65 50 65" id="D"/><use transform="matrix(0.03703703703703702,0,0,0.03703703703703702,0,0)" xlink:href="#D" id="h"/><path fill="#333" d="M64 0c3-98 48-159 88-221H18v-27h164v26C143-157 98-101 97 0H64" id="E"/><use transform="matrix(0.03703703703703702,0,0,0.03703703703703702,0,0)" xlink:href="#E" id="i"/><path fill="#333" d="M134-131c28 9 52 24 51 62-1 50-34 73-85 73S17-19 16-69c0-36 21-54 49-61-75-25-45-126 34-121 46 3 78 18 79 63 0 33-17 51-44 57zm-34-11c31 1 46-15 46-44 0-28-17-43-47-42-29 0-46 13-45 42 1 28 16 44 46 44zm1 122c35 0 51-18 51-52 0-30-18-46-53-46-33 0-51 17-51 47 0 34 19 51 53 51" id="F"/><use transform="matrix(0.03703703703703702,0,0,0.03703703703703702,0,0)" xlink:href="#F" id="j"/><path fill="#333" d="M24-231v-30h32v30H24zM24 0v-190h32V0H24" id="G"/><path fill="#333" d="M210-169c-67 3-38 105-44 169h-31v-121c0-29-5-50-35-48C34-165 62-65 56 0H25l-1-190h30c1 10-1 24 2 32 10-44 99-50 107 0 11-21 27-35 58-36 85-2 47 119 55 194h-31v-121c0-29-5-49-35-48" id="H"/><g id="k"><use transform="matrix(0.04320987654320987,0,0,0.04320987654320987,0,0)" xlink:href="#G"/><use transform="matrix(0.04320987654320987,0,0,0.04320987654320987,3.4135802469135794,0)" xlink:href="#r"/><use transform="matrix(0.04320987654320987,0,0,0.04320987654320987,7.734567901234566,0)" xlink:href="#v"/><use transform="matrix(0.04320987654320987,0,0,0.04320987654320987,16.376543209876537,0)" xlink:href="#H"/></g><path fill="#333" d="M115-194c55 1 70 41 70 98S169 2 115 4C84 4 66-9 55-30l1 105H24l-1-265h31l2 30c10-21 28-34 59-34zm-8 174c40 0 45-34 45-75s-6-73-45-74c-42 0-51 32-51 76 0 43 10 73 51 73" id="I"/><path fill="#333" d="M100-194c62-1 85 37 85 99 1 63-27 99-86 99S16-35 15-95c0-66 28-99 85-99zM99-20c44 1 53-31 53-75 0-43-8-75-51-75s-53 32-53 75 10 74 51 75" id="J"/><path fill="#333" d="M135-143c-3-34-86-38-87 0 15 53 115 12 119 90S17 21 10-45l28-5c4 36 97 45 98 0-10-56-113-15-118-90-4-57 82-63 122-42 12 7 21 19 24 35" id="K"/><path fill="#333" d="M117-194c89-4 53 116 60 194h-32v-121c0-31-8-49-39-48C34-167 62-67 57 0H25l-1-190h30c1 10-1 24 2 32 11-22 29-35 61-36" id="L"/><g id="l"><use transform="matrix(0.04320987654320987,0,0,0.04320987654320987,0,0)" xlink:href="#I"/><use transform="matrix(0.04320987654320987,0,0,0.04320987654320987,8.641975308641973,0)" xlink:href="#J"/><use transform="matrix(0.04320987654320987,0,0,0.04320987654320987,17.283950617283946,0)" xlink:href="#K"/><use transform="matrix(0.04320987654320987,0,0,0.04320987654320987,25.061728395061724,0)" xlink:href="#G"/><use transform="matrix(0.04320987654320987,0,0,0.04320987654320987,28.475308641975296,0)" xlink:href="#r"/><use transform="matrix(0.04320987654320987,0,0,0.04320987654320987,32.79629629629628,0)" xlink:href="#G"/><use transform="matrix(0.04320987654320987,0,0,0.04320987654320987,36.209876543209866,0)" xlink:href="#J"/><use transform="matrix(0.04320987654320987,0,0,0.04320987654320987,44.85185185185184,0)" xlink:href="#L"/><use transform="matrix(0.04320987654320987,0,0,0.04320987654320987,53.493827160493815,0)" xlink:href="#K"/></g><g id="m"><use transform="matrix(0.04320987654320987,0,0,0.04320987654320987,0,0)" xlink:href="#J"/><use transform="matrix(0.04320987654320987,0,0,0.04320987654320987,8.641975308641973,0)" xlink:href="#L"/></g><g id="n"><use transform="matrix(0.04320987654320987,0,0,0.04320987654320987,0,0)" xlink:href="#K"/><use transform="matrix(0.04320987654320987,0,0,0.04320987654320987,7.777777777777776,0)" xlink:href="#r"/><use transform="matrix(0.04320987654320987,0,0,0.04320987654320987,12.098765432098762,0)" xlink:href="#s"/><use transform="matrix(0.04320987654320987,0,0,0.04320987654320987,20.740740740740733,0)" xlink:href="#t"/><use transform="matrix(0.04320987654320987,0,0,0.04320987654320987,25.882716049382704,0)" xlink:href="#r"/><use transform="matrix(0.04320987654320987,0,0,0.04320987654320987,30.2037037037037,0)" xlink:href="#G"/><use transform="matrix(0.04320987654320987,0,0,0.04320987654320987,33.61728395061728,0)" xlink:href="#L"/><use transform="matrix(0.04320987654320987,0,0,0.04320987654320987,42.25925925925925,0)" xlink:href="#u"/></g><g id="o"><use transform="matrix(0.04320987654320987,0,0,0.04320987654320987,0,0)" xlink:href="#I"/><use transform="matrix(0.04320987654320987,0,0,0.04320987654320987,8.641975308641973,0)" xlink:href="#J"/><use transform="matrix(0.04320987654320987,0,0,0.04320987654320987,17.283950617283946,0)" xlink:href="#K"/><use transform="matrix(0.04320987654320987,0,0,0.04320987654320987,25.061728395061724,0)" xlink:href="#K"/><use transform="matrix(0.04320987654320987,0,0,0.04320987654320987,32.8395061728395,0)" xlink:href="#G"/><use transform="matrix(0.04320987654320987,0,0,0.04320987654320987,36.25308641975308,0)" xlink:href="#w"/><use transform="matrix(0.04320987654320987,0,0,0.04320987654320987,44.89506172839505,0)" xlink:href="#x"/><use transform="matrix(0.04320987654320987,0,0,0.04320987654320987,48.30864197530864,0)" xlink:href="#v"/></g><path fill="#333" d="M101-234c-31-9-42 10-38 44h38v23H63V0H32v-167H5v-23h27c-7-52 17-82 69-68v24" id="M"/><g id="p"><use transform="matrix(0.04320987654320987,0,0,0.04320987654320987,0,0)" xlink:href="#M"/><use transform="matrix(0.04320987654320987,0,0,0.04320987654320987,4.320987654320986,0)" xlink:href="#J"/><use transform="matrix(0.04320987654320987,0,0,0.04320987654320987,12.962962962962958,0)" xlink:href="#t"/></g><path fill="#333" d="M84 4C-5 8 30-112 23-190h32v120c0 31 7 50 39 49 72-2 45-101 50-169h31l1 190h-30c-1-10 1-25-2-33-11 22-28 36-60 37" id="N"/><path fill="#333" d="M24-231v-30h32v30H24zM-9 49c24 4 33-6 33-30v-209h32V24c2 40-23 58-65 49V49" id="O"/><path fill="#333" d="M96-169c-40 0-48 33-48 73s9 75 48 75c24 0 41-14 43-38l32 2c-6 37-31 61-74 61-59 0-76-41-82-99-10-93 101-131 147-64 4 7 5 14 7 22l-32 3c-4-21-16-35-41-35" id="P"/><g id="q"><use transform="matrix(0.04320987654320987,0,0,0.04320987654320987,0,0)" xlink:href="#K"/><use transform="matrix(0.04320987654320987,0,0,0.04320987654320987,7.777777777777776,0)" xlink:href="#N"/><use transform="matrix(0.04320987654320987,0,0,0.04320987654320987,16.41975308641975,0)" xlink:href="#w"/><use transform="matrix(0.04320987654320987,0,0,0.04320987654320987,25.061728395061724,0)" xlink:href="#O"/><use transform="matrix(0.04320987654320987,0,0,0.04320987654320987,28.475308641975296,0)" xlink:href="#v"/><use transform="matrix(0.04320987654320987,0,0,0.04320987654320987,37.11728395061727,0)" xlink:href="#P"/><use transform="matrix(0.04320987654320987,0,0,0.04320987654320987,44.89506172839505,0)" xlink:href="#r"/></g></defs></g></svg>